HIERARCHY
ROOT hip
{
  OFFSET 0 0 0
  CHANNELS 6 Xposition Yposition Zposition Zrotation Yrotation Xrotation
  JOINT abdomen
  {
    OFFSET 0 20.6881 -0.73152
    CHANNELS 3 Zrotation Xrotation Yrotation
    JOINT chest
    {
      OFFSET 0 11.7043 -0.48768
      CHANNELS 3 Zrotation Xrotation Yrotation
      JOINT neck
      {
        OFFSET 0 22.1894 -2.19456
        CHANNELS 3 Zrotation Xrotation Yrotation
        JOINT head
        {
          OFFSET -0.24384 7.07133 1.2192
          CHANNELS 3 Zrotation Xrotation Yrotation
          JOINT leftEye
          {
            OFFSET 4.14528 8.04674 8.04672
            CHANNELS 3 Zrotation Xrotation Yrotation
            End Site
            {
              OFFSET 1 0 0
            }
          }
          JOINT rightEye
          {
            OFFSET -3.6576 8.04674 8.04672
            CHANNELS 3 Zrotation Xrotation Yrotation
            End Site
            {
              OFFSET 1 0 0
            }
          }
        }
      }
      JOINT rCollar
      {
        OFFSET -2.68224 19.2634 -4.8768
        CHANNELS 3 Zrotation Xrotation Yrotation
        JOINT rShldr
        {
          OFFSET -8.77824 -1.95073 1.46304
          CHANNELS 3 Zrotation Xrotation Yrotation
          JOINT rForeArm
          {
            OFFSET -28.1742 -1.7115 0.48768
            CHANNELS 3 Zrotation Xrotation Yrotation
            JOINT rHand
            {
              OFFSET -22.5879 0.773209 7.07136
              CHANNELS 3 Zrotation Xrotation Yrotation
              JOINT rThumb1
              {
                OFFSET -1.2192 -0.487915 3.41376
                CHANNELS 3 Zrotation Xrotation Yrotation
                JOINT rThumb2
                {
                  OFFSET -3.37035 -0.52449 3.41376
                  CHANNELS 3 Zrotation Xrotation Yrotation
                  End Site
                  {
                    OFFSET -1.78271 -1.18214 1.43049
                  }
                }
              }
              JOINT rIndex1
              {
                OFFSET -7.75947 0.938293 5.60832
                CHANNELS 3 Zrotation Xrotation Yrotation
                JOINT rIndex2
                {
                  OFFSET -2.54057 -0.884171 1.56538
                  CHANNELS 3 Zrotation Xrotation Yrotation
                  End Site
                  {
                    OFFSET -1.62519 -0.234802 1.16502
                  }
                }
              }
              JOINT rMid1
              {
                OFFSET -8.24714 1.18213 3.41376
                CHANNELS 3 Zrotation Xrotation Yrotation
                JOINT rMid2
                {
                  OFFSET -3.10165 -0.590103 1.0647
                  CHANNELS 3 Zrotation Xrotation Yrotation
                  End Site
                  {
                    OFFSET -2.48547 -0.328903 0.83742
                  }
                }
              }
              JOINT rRing1
              {
                OFFSET -8.82822 0.546677 1.51678
                CHANNELS 3 Zrotation Xrotation Yrotation
                JOINT rRing2
                {
                  OFFSET -2.60934 -0.819778 -0.0198488
                  CHANNELS 3 Zrotation Xrotation Yrotation
                  End Site
                  {
                    OFFSET -2.33842 -0.294052 0.168128
                  }
                }
              }
              JOINT rPinky1
              {
                OFFSET -8.27202 -0.0477905 -0.4584
                CHANNELS 3 Zrotation Xrotation Yrotation
                JOINT rPinky2
                {
                  OFFSET -1.82734 -0.647385 -0.700984
                  CHANNELS 3 Zrotation Xrotation Yrotation
                  End Site
                  {
                    OFFSET -1.69225 -0.51767 -0.607171
                  }
                }
              }
            }
          }
        }
      }
      JOINT lCollar
      {
        OFFSET 2.68224 19.2634 -4.8768
        CHANNELS 3 Zrotation Xrotation Yrotation
        JOINT lShldr
        {
          OFFSET 8.77824 -1.95073 1.46304
          CHANNELS 3 Zrotation Xrotation Yrotation
          JOINT lForeArm
          {
            OFFSET 28.1742 -1.7115 0.48768
            CHANNELS 3 Zrotation Xrotation Yrotation
            JOINT lHand
            {
              OFFSET 22.5879 0.773209 7.07136
              CHANNELS 3 Zrotation Xrotation Yrotation
              JOINT lThumb1
              {
                OFFSET 1.2192 -0.487915 3.41376
                CHANNELS 3 Zrotation Xrotation Yrotation
                JOINT lThumb2
                {
                  OFFSET 3.37035 -0.52449 3.41376
                  CHANNELS 3 Zrotation Xrotation Yrotation
                  End Site
                  {
                    OFFSET 1.78271 -1.18214 1.43049
                  }
                }
              }
              JOINT lIndex1
              {
                OFFSET 7.75947 0.938293 5.60832
                CHANNELS 3 Zrotation Xrotation Yrotation
                JOINT lIndex2
                {
                  OFFSET 2.54057 -0.884171 1.56538
                  CHANNELS 3 Zrotation Xrotation Yrotation
                  End Site
                  {
                    OFFSET 1.62519 -0.234802 1.16502
                  }
                }
              }
              JOINT lMid1
              {
                OFFSET 8.24714 1.18213 3.41376
                CHANNELS 3 Zrotation Xrotation Yrotation
                JOINT lMid2
                {
                  OFFSET 3.10165 -0.590103 1.0647
                  CHANNELS 3 Zrotation Xrotation Yrotation
                  End Site
                  {
                    OFFSET 2.48547 -0.328903 0.83742
                  }
                }
              }
              JOINT lRing1
              {
                OFFSET 8.82822 0.546677 1.51678
                CHANNELS 3 Zrotation Xrotation Yrotation
                JOINT lRing2
                {
                  OFFSET 2.60934 -0.819778 -0.0198488
                  CHANNELS 3 Zrotation Xrotation Yrotation
                  End Site
                  {
                    OFFSET 2.33842 -0.294052 0.168128
                  }
                }
              }
              JOINT lPinky1
              {
                OFFSET 8.27202 -0.0477905 -0.4584
                CHANNELS 3 Zrotation Xrotation Yrotation
                JOINT lPinky2
                {
                  OFFSET 1.82734 -0.647385 -0.700984
                  CHANNELS 3 Zrotation Xrotation Yrotation
                  End Site
                  {
                    OFFSET 1.69225 -0.51767 -0.607171
                  }
                }
              }
            }
          }
        }
      }
    }
  }
  JOINT rButtock
  {
    OFFSET -8.77824 4.35084 1.2192
    CHANNELS 3 Zrotation Xrotation Yrotation
    JOINT rThigh
    {
      OFFSET 0 -1.70687 -2.19456
      CHANNELS 3 Zrotation Xrotation Yrotation
      JOINT rShin
      {
        OFFSET 0 -36.8199 0.73152
        CHANNELS 3 Zrotation Xrotation Yrotation
        JOINT rFoot
        {
          OFFSET 0.73152 -45.1104 -5.12064
          CHANNELS 3 Zrotation Xrotation Yrotation
          End Site
          {
            OFFSET -1.1221 -3.69964 12.103
          }
        }
      }
    }
  }
  JOINT lButtock
  {
    OFFSET 8.77824 4.35084 1.2192
    CHANNELS 3 Zrotation Xrotation Yrotation
    JOINT lThigh
    {
      OFFSET 0 -1.70687 -2.19456
      CHANNELS 3 Zrotation Xrotation Yrotation
      JOINT lShin
      {
        OFFSET 0 -36.8199 0.73152
        CHANNELS 3 Zrotation Xrotation Yrotation
        JOINT lFoot
        {
          OFFSET -0.73152 -45.1104 -5.12064
          CHANNELS 3 Zrotation Xrotation Yrotation
          End Site
          {
            OFFSET 1.1221 -3.69964 12.103
          }
        }
      }
    }
  }
}
MOTION
Frames:	7
Frame Time:	0.03333
0.0 0.0 0.0 0.0 0.0 0.0 0.0 0.0 0.0 0.0 0.0 0.0 0.0 0.0 0.0 0.0 0.0 0.0 0.0 0.0 0.0 0.0 0.0 0.0 0.0 0.0 0.0 0.0 0.0 0.0 0.0 0.0 0.0 0.0 0.0 0.0 0.0 0.0 0.0 0.0 0.0 0.0 0.0 0.0 0.0 0.0 0.0 0.0 0.0 0.0 0.0 0.0 0.0 0.0 0.0 0.0 0.0 0.0 0.0 0.0 0.0 0.0 0.0 0.0 0.0 0.0 0.0 0.0 0.0 0.0 0.0 0.0 0.0 0.0 0.0 0.0 0.0 0.0 0.0 0.0 0.0 0.0 0.0 0.0 0.0 0.0 0.0 0.0 0.0 0.0 0.0 0.0 0.0 0.0 0.0 0.0 0.0 0.0 0.0 0.0 0.0 0.0 0.0 0.0 0.0 0.0 0.0 0.0 0.0 0.0 0.0 0.0 0.0 0.0 0.0 0.0 0.0 0.0 0.0 0.0 0.0 0.0 0.0 0.0 0.0 0.0 0.0 0.0 0.0 0.0 0.0 0.0
-0.0423 61.8085 -0.0157 -179.852997 14.987075 178.661751 -0.13716 4.158161 0.0 -4.214288 6.989857 25.828511 8.778587 -5.725379 131.074268 43.133741 34.561799 111.537811 10.34319 -7.582048 -72.417525 -130.434877 -1.700146 -3.6814 -79.581962 -29.753876 165.011752 -168.819792 -46.261961 169.116885 -0.635117 9.163948 165.443285 -3.485432 23.471597 -74.173458 -91.173905 -8.960224 38.475972 -155.571064 52.40546 -79.951637 62.161588 7.547711 -112.261781 -14.773922 13.756395 -90.268017 148.305831 16.276733 -112.661259 -158.935619 -7.05593 143.187757 -96.290711 20.26386 -96.342538 -62.606556 88.573994 74.296646 -137.398019 27.953318 -73.255982 6.294765 1.81718 -1.290747 81.315719 -20.178847 -162.969603 -16.966501 -43.852308 -9.281275 159.974795 83.665976 32.294655 -147.160985 -49.439038 -84.491653 15.800407 -5.795313 -11.844532 -4.976536 -49.286539 -4.321476 -178.072057 -2.819574 -93.818056 99.948546 53.943695 -66.487867 -87.476421 -48.744397 -85.864781 -11.37343 1.280621 56.459237 78.254536 43.661079 110.102403 165.751135 -65.831196 -166.614756 -25.266149 2.718867 92.989246 132.850862 -14.627066 135.295498 0.992605 -51.238847 -0.025012 -0.959189 50.507222 -172.963077 -3.628691 2.697807 -128.506801 53.889493 -52.452162 -118.581121 -1.635926 -51.698526 0.019848 4.836613 55.218722 -3.92074 4.703265 -4.6794 60.616507 -59.275414 64.864875 58.669338
-0.9621 66.8892 0.0294 -161.409207 47.26336 -155.307918 9.494989 10.224255 0.0 0.246214 -6.705599 6.080662 -14.510016 13.696318 150.306061 -44.36759 14.431097 -115.410965 -21.087523 4.876675 -25.772773 44.765779 -16.012361 -37.713557 -4.866092 33.535151 22.398996 -169.116814 -10.196322 108.39211 5.762788 -16.720114 -104.079997 149.731388 -29.278957 139.765545 -4.980404 -19.031519 5.662849 -107.495419 21.19128 107.03795 -54.395614 43.858599 26.775766 -76.601725 -88.55256 -148.844966 -172.121904 -2.966131 141.944746 25.312821 -17.988742 27.469075 -169.361471 3.127069 -170.933862 -5.61988 28.523699 -16.176634 1.174011 43.519156 9.470825 11.12251 -70.79024 5.388867 147.746073 -22.553113 -170.359904 -86.494501 12.292826 114.530384 -128.751465 -10.001764 25.863068 171.867389 58.773307 -138.266609 -9.376948 -7.506292 12.714791 125.734438 -35.248339 -74.185097 126.161854 -26.41853 -111.515734 -16.703858 66.667585 -27.15062 -12.880011 -23.86825 -5.269519 -7.666805 -37.706549 -7.869538 66.658706 -61.82576 62.996242 -44.842591 17.307479 -11.617023 -148.735613 34.679194 151.171086 -109.088348 -26.997604 -179.615491 64.683854 84.274211 109.814877 128.037712 70.575526 133.566489 64.114644 -6.917209 90.220126 -93.693674 37.980553 -169.47702 0.655651 -14.27285 2.657619 46.906977 -54.414234 -180.0 68.020108 -64.917555 -31.968008 2.454962 -29.255847 -90.516677
-1.3174 64.37079999999999 -1.2517 -156.031583 56.176561 -153.196643 9.364368 8.936622 -119.934323 8.321389 0.178701 144.832278 10.463992 16.78538 122.618269 -27.249861 11.175564 -102.580628 -55.931608 5.784472 -10.871222 7.917129 2.506654 35.089538 2.735672 30.801039 5.664919 -96.649368 10.797724 110.979786 -135.299368 -49.681122 -67.066718 3.737264 7.019837 3.253339 -120.944614 40.620326 76.78055 -130.078227 13.951484 98.969099 3.345983 -18.547675 6.260164 -171.485568 -5.72353 103.31735 5.561222 -24.323653 -22.241032 104.294645 -46.69631 88.522898 -103.733652 -60.18539 -106.135874 26.251054 26.065246 -25.924455 -36.668133 -43.795222 -7.902488 25.153031 -0.360437 15.205902 -179.833538 -47.814874 -151.212131 79.094789 -14.082806 112.582882 -57.795262 -16.485263 178.083544 154.481564 70.554289 -128.135313 -97.339595 -61.858258 -33.236736 135.271971 -7.864698 -74.778169 -160.001635 -45.81738 -88.855567 -4.059247 20.289736 -54.514644 84.690237 58.277386 -78.490128 -21.561281 44.237597 7.179861 -34.374479 54.648477 31.100746 56.288556 13.423879 -21.415928 161.791288 -43.399921 75.153779 87.51522 30.513694 54.173755 -36.543457 2.839773 -16.916749 20.221183 -8.855802 -0.0 -10.142227 66.126428 97.113284 -67.37318 86.529878 -18.559955 21.269507 -6.025299 18.37155 17.912962 -61.76545 -159.852176 94.11263 -86.955413 65.64881 -111.272121 -20.40765 153.693011
-1.3325 58.986799999999995 -1.6661 -156.337309 60.793668 -152.843199 -0.607216 3.656869 -97.550716 1.961388 7.621231 115.52504 -18.044726 16.46007 -76.252696 32.939555 21.949498 90.698628 -14.541444 1.53303 -11.972844 7.612384 2.607326 37.768168 -151.196298 -1.691662 160.194075 -34.378208 30.299691 -26.439377 -168.174461 -17.676447 -93.142318 -7.129673 4.480835 6.646483 31.030853 -4.059154 -28.003499 -6.273194 -50.621374 60.305009 -164.702409 -32.76099 135.892366 -106.3004 78.52401 59.080366 -137.684461 -45.683864 -171.997886 30.845077 0.414487 -13.179225 -27.009227 -15.012433 -7.171295 -123.561876 -45.511799 -173.656307 -168.436802 30.59779 -124.83106 53.381049 48.814294 -68.571142 -1.549701 -18.273923 3.843135 -105.897561 -17.971175 -53.837194 -99.457134 82.333918 -7.20238 11.301209 35.95587 -9.685121 177.737315 -12.625895 -98.716692 162.267888 9.84525 -87.997329 6.306074 -26.610493 6.303557 167.55458 -5.39107 -92.48859 88.883728 -89.607158 107.912052 165.048817 26.974386 -175.625258 -19.064904 -0.068779 4.413486 -86.341104 -74.250393 -95.553834 132.916503 5.067634 94.915669 -15.055566 -4.540765 39.385358 -136.977486 76.02933 -29.77985 111.681893 51.84633 -23.081276 -55.972247 7.757644 76.688904 21.604294 -13.935022 -13.874648 32.400792 29.824981 50.125594 -85.052616 -63.353799 -180.0 -71.031136 -44.697212 13.549111 169.970659 66.937889 -107.25761
-0.9499000000000001 56.4579 -1.1555 -155.997308 62.76981 -151.352202 -8.150282 3.026843 0.091864 14.56423 -5.17787 17.21811 5.325075 17.720474 81.289172 -25.874558 -5.896191 -60.639299 -18.265701 3.716108 -22.817254 -28.314326 -3.717473 14.662264 -138.485535 37.888011 145.89218 96.892081 -49.428796 137.177619 94.401277 30.117898 64.627878 -66.722889 58.025451 46.317292 -136.154557 -12.283958 100.806134 59.887139 -44.747715 14.342781 2.820925 -2.555252 -10.578922 -174.672739 -55.151813 100.6071 -172.027909 -51.433914 170.557077 10.405634 64.312167 -44.906156 0.846142 -5.418818 1.53801 1.738527 -41.25786 2.803229 -168.46134 8.497143 -127.85718 75.300255 62.728837 -72.278001 81.62113 69.755896 -87.422481 51.812846 -11.293165 -20.41072 -56.207099 10.537509 171.927245 170.900727 43.992324 -149.119384 171.874492 -14.137472 -101.345709 151.520666 -81.214588 163.141584 61.595194 37.210491 -37.158133 -20.84049 5.482206 -30.918282 4.228604 -23.243112 25.462457 -101.321748 -55.652825 -45.399873 131.936168 -8.833933 -166.739579 -39.378592 -20.899405 -13.222512 32.327354 -25.589961 44.175715 83.2942 59.290553 -111.893421 5.367269 -10.585039 -5.829632 -27.672638 1.928892 -89.824417 -50.292812 0.00904 91.464718 76.720594 -41.169646 -12.209488 -73.332606 9.0121 -26.3937 136.487729 -27.71346 81.29849 52.766475 62.785677 -140.41428 147.300061 21.336572 -103.575874
-0.823 56.224799999999995 -0.0353 -152.584321 62.550547 -148.211459 -2.251938 1.054067 -0.052416 10.402224 -4.457724 22.361617 -12.263716 20.622193 -84.554485 28.434976 16.28518 104.428292 -38.188383 12.278403 -34.522147 -42.260901 9.500823 -24.270005 1.918374 -1.025487 1.721399 70.50652 12.775961 2.97919 7.554844 38.839035 107.510607 -14.156987 -20.895912 -7.295927 -89.200784 29.774329 48.691468 18.990483 12.75523 27.416004 -135.871386 -21.500548 130.310435 -164.939716 -22.700819 116.07047 -5.598999 -59.381922 -8.261928 -15.767248 -45.907575 -62.806367 -136.579508 -20.126352 -161.951106 -146.031103 67.258716 -173.316493 -132.493797 61.61648 172.594038 -59.162448 81.512888 136.26602 153.938281 -19.697764 -161.142066 6.580811 4.230499 45.756272 28.891521 -19.533856 145.399866 -148.638259 -45.551499 -134.658934 0.015767 8.436696 6.102398 -39.53046 -17.763419 -18.298856 55.430709 27.478685 -48.558353 107.673709 83.245514 -123.528089 151.680822 20.92946 -146.378929 159.04753 -52.090847 -161.280496 83.757987 78.673035 -116.445378 -15.491638 -1.295038 19.45837 97.306786 -40.584143 89.895791 -16.622905 16.189311 -15.214163 35.602653 -8.541762 19.946548 -55.445199 18.381918 133.078287 39.859429 -47.181342 78.759693 -43.316408 56.154855 151.038246 -36.150024 10.456071 -17.956358 117.885224 -27.297634 -42.360547 -79.361851 -25.62452 -106.644331 -99.039376 -10.819626 149.838455
